<svg height="512pt" viewBox="0 0 512 512" width="512pt" xmlns="http://www.w3.org/2000/svg"><path d="m168.949219 26.96875-.070313-.179688c-73.839844 29.28125-131.929687 94.011719-151.640625 171.550782 34.761719-17.949219 71.640625-30.550782 109.472657-37.800782l43.257812-53.167968c-12.9375-25.109375-13.277344-55.03125-1.019531-80.402344zm0 0" fill="#ff80ac"/><path d="m382.101562 46.390625c-56.582031 2.539063-122.863281 20.039063-170.953124 52.5l-7.25 54.28125c101.742187-.171875 216.351562 42.847656 297.671874 116.828125.289063-4.640625.429688-9.308594.429688-14 0-86.980469-48.851562-165.738281-119.898438-209.609375zm0 0" fill="#64e1dc"/><path d="m318.570312 431.710938c-69.601562-69.609376-122.242187-168.992188-133.730468-258.769532l-57.667969 9.929688c-46.300781 68.589844-62.160156 162.859375-47.59375 242.039062-.007813.011719 0 .011719 0 .011719 45.230469 47.117187 108.300781 77.078125 176.421875 77.078125 39.761719 0 77.800781-10.210938 111.578125-28.078125-17.109375-12.632813-33.5-26.703125-49.007813-42.210937zm0 0" fill="#fdbf00"/><path d="m203.910156 153.171875c15.53125-20.441406 20.511719-41.890625 10.730469-51.660156-1.039063-1.042969-2.199219-1.910157-3.492187-2.621094 48.089843-32.460937 114.371093-49.960937 170.953124-52.5-37.222656-22.980469-80.53125-36.390625-126.101562-36.390625-30.429688 0-59.851562 5.980469-87.121094 16.789062l.070313.179688c-12.257813 25.371094-11.917969 55.292969 1.019531 80.402344-6.410156 4.089844-12.847656 9.238281-18.957031 15.347656-12.273438 12.261719-20.722657 25.921875-24.300781 37.820312-37.832032 7.25-74.710938 19.851563-109.472657 37.800782-4.71875 18.589844-7.238281 37.910156-7.238281 57.660156 0 64.429688 26.800781 124.351562 69.578125 168.910156-14.566406-79.179687 1.292969-173.449218 47.59375-242.039062.707031 1.277344 1.578125 2.449218 2.617187 3.488281 10.320313 10.320313 33.640626 4.191406 55.050782-13.417969 11.488281 89.777344 64.128906 189.160156 133.730468 258.769532 15.507813 15.507812 31.898438 29.578124 49.007813 42.210937 74.84375-39.59375 128.742187-116.800781 133.992187-203.921875-81.320312-73.980469-195.921874-117-297.660156-116.828125zm0 0" fill="#faecd8"/><path d="m256 0c-137.886719 0-256 117.726562-256 256 0 5.71875.207031 11.511719.613281 17.222656.390625 5.511719 5.175781 9.664063 10.683594 9.265625 5.511719-.390625 9.65625-5.175781 9.265625-10.683593-.375-5.242188-.5625-10.558594-.5625-15.804688 0-17.027344 1.996094-34.101562 5.894531-50.828125 28.175781-14.136719 58-24.851563 88.902344-31.910156.058594 2.980469.457031 5.800781 1.191406 8.4375-38.011719 58.746093-56.390625 136.503906-50.675781 210.671875-10.550781-14.46875-19.425781-29.980469-26.507812-46.375-2.191407-5.070313-8.078126-7.40625-13.148438-5.21875-5.066406 2.191406-7.402344 8.078125-5.214844 13.148437 12.359375 28.613281 29.730469 54.722657 51.632813 77.609375.136719.148438.273437.296875.414062.441406 48.886719 50.855469 115.765625 80.023438 183.511719 80.023438 136.847656 0 256-116.492188 256-256 0-136.421875-116.515625-256-256-256zm235.867188 248.433594c-75.242188-61.578125-175.550782-100.566406-270.070313-104.863282 8.363281-16.28125 10.089844-31.675781 4.632813-42.558593 41.632812-25.113281 97.703124-41.488281 153.035156-44.46875 67.273437 42.714843 109.761718 115.4375 112.402344 191.890625zm-355.945313-70.398438c-4.867187-8.8125 4.855469-30.949218 22.15625-48.246094 18.167969-18.160156 42.316406-28.375 49.492187-21.203124 6.128907 6.117187-.640624 28.914062-21.210937 49.492187-20.101563 20.097656-45.464844 28.9375-50.4375 19.957031zm211.691406-138.511718c-50.800781 6.980468-100.222656 24.117187-137.636719 48.167968-9.828124-2.773437-22.082031-.832031-35.25 5.558594-6.789062-18.941406-6.222656-40.046875 1.75-58.660156 25.730469-9.675782 52.460938-14.589844 79.523438-14.589844 31.320312 0 62.476562 6.691406 91.613281 19.523438zm-195.402343 5.800781c-4.113282 19.5-2.378907 40.019531 5.1875 58.617187-4.65625 3.5-9.160157 7.410156-13.457032 11.707032-11.277344 11.265624-19.90625 23.925781-24.773437 36.207031-29.570313 6.089843-58.269531 15.328125-85.640625 27.5625 20.714844-57.167969 64.042968-106.125 118.683594-134.09375zm-63.300782 374.820312c-13.1875-75.894531 2.148438-159.53125 40.332032-221.960937 14.691406 7.550781 33.980468.875 48.179687-7.71875 15.382813 86.222656 65.738281 179.964844 134.078125 248.316406 11.753906 11.753906 24.207031 22.882812 37.152344 33.210938-29.429688 13.113281-61.15625 20.007812-92.652344 20.007812-61.421875 0-122.144531-26.164062-167.089844-71.855469zm279.53125 41.90625c-14.996094-11.425781-29.375-23.984375-42.800781-37.410156-68.261719-68.273437-117.773437-162.683594-130.152344-247.675781 1.710938-1.539063 3.390625-3.121094 5.011719-4.742188 2.914062-2.914062 5.652344-5.941406 8.199219-9.027344 98.9375 1.160157 206.316406 43.332032 282.542969 110.96875-6.335938 77.433594-52.859376 148.5625-122.800782 187.886719zm0 0"/><path d="m27 312c0-5.519531-4.480469-10-10-10s-10 4.480469-10 10 4.480469 10 10 10 10-4.480469 10-10zm0 0"/></svg>